<svg xmlns="http://www.w3.org/2000/svg" viewBox="0 0 24 24" fill="none" stroke-width="2" stroke-linecap="round" stroke-linejoin="round">
  <path d="M12 3l7 3v5c0 4.5-3 8-7 10-4-2-7-5.5-7-10V6z" stroke="#2563eb" />
  <path d="M9 8.5c.8-.8 2.2-1.2 3.5-.7 1.6.6 1.7 2.4.2 3.1l-1.8.8c-1.6.7-1.4 2.6.3 3.1 1.3.4 2.7 0 3.6-.9" stroke="#f97316" />

  <path d="M17 4l1-2" stroke="#22c55e" />
  <path d="M20 7l2-1" stroke="#a855f7" />
  <path d="M20 12h2" stroke="#ec4899" />

  <path d="M6 4L5 2" stroke="#22c55e" />
  <path d="M3 7L1 6" stroke="#a855f7" />
  <path d="M3 12H1" stroke="#ec4899" />

  <path d="M8 19l-2 2" stroke="#14b8a6" />
  <path d="M16 19l2 2" stroke="#14b8a6" />
</svg>
